<?xml version="1.0" encoding="UTF-8"?>
<svg version="1.1" xmlns="http://www.w3.org/2000/svg" width="500" height="500">
<path d="M0 0 C165 0 330 0 500 0 C500 165 500 330 500 500 C335 500 170 500 0 500 C0 335 0 170 0 0 Z " fill="#FF6D00" transform="translate(0,0)"/>
<path d="M0 0 C2.2963564 1.72710785 4.46986986 3.53444315 6.62890625 5.4296875 C7.2115625 5.91824219 7.79421875 6.40679687 8.39453125 6.91015625 C34.57027018 30.70072271 47.66304585 74.87017668 58.62890625 107.4296875 C58.9935498 108.50057617 59.35819336 109.57146484 59.73388672 110.67480469 C67.17903108 132.65634906 74.04201381 154.00873818 72.62890625 177.4296875 C69.19557263 175.89581392 66.55302462 173.84253264 63.62890625 171.4921875 C57.41978249 166.73593753 50.81686037 163.09937275 43.8359375 159.58813477 C36.49438024 155.76585678 31.26492423 150.80919773 26.19140625 144.3046875 C23.85302387 141.68113654 21.99537302 140.27102492 19.06640625 138.4296875 C15.11376119 135.87364369 12.58462614 133.85131509 10.62890625 129.4296875 C10.003828 124.60765528 10.32286218 120.10494671 11.62890625 115.4296875 C13.70820605 107.94119473 13.20967136 101.5469407 9.89453125 94.53515625 C8.6423216 92.29834802 8.6423216 92.29834802 6.58569336 90.1730957 C4.29599571 86.96294816 4.10980622 85.32758588 4.0546875 81.4296875 C4.02697266 80.2953125 3.99925781 79.1609375 3.97070312 77.9921875 C3.96103516 76.8165625 3.95136719 75.6409375 3.94140625 74.4296875 C3.8991902 72.09629102 3.85373905 69.7629503 3.8046875 67.4296875 C3.7878894 65.8828125 3.7878894 65.8828125 3.77075195 64.3046875 C3.63623288 61.5781874 3.24014507 59.08581465 2.62890625 56.4296875 C-4.47872712 57.60342512 -7.887352 61.4072844 -12.68359375 66.5546875 C-14.09201752 68.04058093 -15.50456617 69.52257911 -16.921875 71 C-17.53716064 71.65758301 -18.15244629 72.31516602 -18.78637695 72.99267578 C-20.37109375 74.4296875 -20.37109375 74.4296875 -22.37109375 74.4296875 C-24.36097321 71.25796312 -26.196526 68.03799941 -28.00585938 64.76171875 C-29.04991798 62.9376563 -30.20382452 61.1774703 -31.37109375 59.4296875 C-32.36109375 59.4296875 -33.35109375 59.4296875 -34.37109375 59.4296875 C-36.19221211 63.07192422 -35.72555582 67.44110093 -35.89453125 71.4609375 C-36.05179687 72.440625 -36.2090625 73.4203125 -36.37109375 74.4296875 C-39.02211344 76.19703396 -40.70972986 76.9315323 -43.68359375 77.8046875 C-50.62253441 80.07615783 -50.62253441 80.07615783 -55.44921875 85.32421875 C-56.10169026 86.71978282 -56.74249918 88.12086339 -57.37109375 89.52734375 C-59.38708397 93.36245015 -62.38245116 95.10013997 -66.37109375 96.4296875 C-65.1402158 104.06113081 -63.64345412 110.24464611 -57.34765625 115.09375 C-54.66067644 116.90985098 -51.9070774 118.58460422 -49.0703125 120.15625 C-46.87800513 121.79922058 -46.25979743 122.81965969 -45.37109375 125.4296875 C-43.39463203 141.57370668 -47.51966655 157.07979951 -51.10388184 172.68969727 C-52.62227262 179.3741961 -53.67434814 186.07954709 -54.5703125 192.87109375 C-55.82991269 198.46863409 -57.51146088 203.18993225 -62.37109375 206.4296875 C-77.54151662 208.7563795 -91.67906417 204.75339868 -104.37109375 196.4296875 C-109.7837253 191.28768753 -111.5248356 184.74773361 -111.734375 177.48828125 C-111.73305733 175.28118548 -111.71576375 173.0740492 -111.68359375 170.8671875 C-111.68681641 169.78888672 -111.69003906 168.71058594 -111.69335938 167.59960938 C-111.60475891 153.99541051 -109.28206922 140.93774454 -106.12109375 127.7421875 C-105.96703064 127.09261078 -105.81296753 126.44303406 -105.65423584 125.77377319 C-103.19511692 115.42244024 -100.49330644 105.18541591 -97.22070312 95.06054688 C-96.61554718 93.18665019 -96.01878576 91.31003376 -95.42773438 89.43164062 C-71.1930538 12.50879572 -71.1930538 12.50879572 -45.62109375 -5.5078125 C-32.69201369 -11.61321142 -11.62049878 -7.69594812 0 0 Z " fill="#FFFEFD" transform="translate(264.37109375,145.5703125)"/>
</svg>
