<?xml version="1.0" encoding="utf-8"?>
<!-- Generator: Adobe Illustrator 25.2.1, SVG Export Plug-In . SVG Version: 6.00 Build 0)  -->
<svg version="1.1" id="Camada_1" xmlns="http://www.w3.org/2000/svg" xmlns:xlink="http://www.w3.org/1999/xlink" x="0px" y="0px"
	 viewBox="0 0 1050 180" style="enable-background:new 0 0 1050 180;" xml:space="preserve">
<style type="text/css">
	.st0{fill:#FFFFFF;}
	.st1{fill:#FFFFFF;}
	.st2{fill:#ED6E1E;}
</style>
<g id="Layer_1">
	<path class="st0" d="M144.23,15.32c9.8-1.1,15.9,3.4,20.4,11.2c8.7,15.2,13.8,31.7,17.7,48.6c4.3,18.8,7.9,37.8,10.9,56.8
		c1.1,7.1,0.2,14.6-0.3,21.9c-0.5,5.9-3.8,10.6-9.6,12.2c-6.8,1.9-13.9,3.7-20.9,4.3c-8.9,0.7-12.5-3.8-12.8-12.6
		c-0.6-15.6-1-31.3-2.6-46.8c-1-10.2-3.9-20.2-6.2-30.3c-0.4-1.6-1.9-2.8-3-4.2c-1.3,1.2-3.2,2.2-3.7,3.7
		c-4.2,12.8-8.3,25.6-11.9,38.5c-2,6.9-3.2,13.9-4.5,21c-0.9,5-3.7,8-8.5,8.3c-6.3,0.4-12.6,0.2-18.9-0.2c-4-0.3-6.3-3-7.4-7
		c-4.8-18.3-9.8-36.6-14.9-54.9c-0.9-3.2-2.6-6.3-3.9-9.4c-0.6,0-1.2,0-1.8-0.1c-1.1,2.6-2.5,5.1-3.2,7.8
		c-6.1,23.5-9.2,47.4-8.3,71.7c0.5,12.3-4.9,17.1-17.2,15.2c-5.6-0.9-11.1-2.1-16.5-3.6c-6.5-1.8-10.3-6.1-11.3-13.1
		c-2-13.6-0.1-26.9,2.3-40.2c4.7-25.4,10.8-50.4,21-74.2c2.6-6.1,5.9-12,10-17.2c2.3-3,6.6-5.4,10.3-6.1c17.7-3.3,30.5,3.6,40.5,22
		c4.3,8,7.4,16.7,11.1,25.3c1.3-3.2,2.4-6.8,4-10c4.2-8.1,8.4-16.2,13-24.1C123.73,20.02,132.53,15.52,144.23,15.32z"/>
	<path class="st0" d="M322.53,130.72c5.8-34.4,16-67,30.8-98.1c3.6-7.6,8.7-14.5,13.6-21.4c4-5.6,10-7.8,17-8
		c18-0.4,31.3,7.3,40.6,22.6c12.7,20.7,22,42.9,29.6,65.8c5.4,16.1,11.2,32.1,12.3,49.2c0.1,2.1,0,4.2,0,5.9
		c-9.2-5.5-18.1-10.8-26.9-16.4c-2.3-1.5-4.2-3.7-6.3-5.6c-2.8-2.5-5.4-5.4-8.5-7.6c-5.9-4.1-8.3-8.4-6.3-15.3
		c2.6-8.8,2.2-16.6-3.8-24c-0.9-1.1-0.8-3.1-0.9-4.7c-0.4-5.5-0.4-11-1.2-16.4c-0.7-4.4-2.8-5.1-6.1-2.1c-4.5,3.9-8.8,8.1-13.4,12.4
		c-2.8-4.2-5.7-8.4-8.6-12.7c-0.6,0.1-1.2,0.2-1.7,0.3c-0.5,3.1-1.3,6.2-1.4,9.3c-0.1,2.8-1,4.1-3.7,4.9
		c-5.9,1.7-11.5,3.8-13.2,10.7c-0.2,0.9-1.2,1.6-1.9,2.2c-1.7,1.4-5,3-4.9,4c0.7,3.6,2.2,7.3,4.1,10.5c1.2,1.9,3.7,3.2,5.9,4.3
		c4.3,2.2,6.8,5.4,6.7,10.2c0,4.6,0.1,9.4-0.7,13.9c-2.2,12.1-5,24.1-7.5,36.1c-1.5,7.3-4.6,10.8-11.1,10.4c-0.6,0-1.3-0.1-2.1-0.2
		c-7.9-1.3-15.6-4.1-23.1-7.2c-5.4-2.2-7.4-7.7-7.6-13.2C321.93,144.12,322.33,137.62,322.53,130.72z"/>
	<path class="st0" d="M632.93,73.12c13.8-6.5,23.3-8.1,36.9-6.1c0-3.5,0.1-6.9,0-10.3c-0.1-7.7-0.2-15.3-0.6-23
		c-0.2-5.3,2.5-8.3,7.2-9.2c4.4-0.8,9-1.2,13.4-0.8c7.8,0.8,9.3,2.8,9.3,10.7c0.1,25.2-0.2,50.3,0.1,75.5
		c0.2,17.5,2.4,34.8,7.7,51.7c3,9.6,0.7,12.7-9.4,13.6c-1.2,0.1-2.3,0.1-3.5,0.1c-10.7,0.2-20.2-1.6-23.2-14.4
		c-9.5,6.8-19.3,11.6-30.7,11.8c-13,0.3-24.8-3.5-34.5-12.1c-12.3-10.8-13.9-25.3-10.5-40C599.83,99.12,613.33,83.72,632.93,73.12
		 M646.03,142.82c11.5-0.4,16.9-7.4,14.2-18.6c-1.9-7.9-9.4-14.7-17.4-15.9c-9.9-1.5-16.9,5.1-14.9,15
		C629.73,133.02,635.73,139.62,646.03,142.82z"/>
	<path class="st0" d="M978.83,64.12c15.7-4.3,30.2-3.2,44.3,4.7c16.7,9.4,19.9,28.9,18.7,42.8c-0.5,5.2-4.8,9-10.7,9.7
		c-17.7,2.1-35.4,4-53.1,6.1c-2.3,0.3-4.6,1.1-7,1.7c4.1,11.6,15.3,18.9,28.5,17.6c6.7-0.7,13.3-3.6,19.8-5.9
		c3.1-1.1,5.7-3.4,8.8-4.7c6.2-2.6,12.6-0.4,16.1,5.3c2.9,4.7,1.7,8.8-3.6,14c-18.1,17.8-39.7,19.7-62.6,12.7
		c-23.9-7.3-37.6-24.7-42.5-48.5c-4.7-22.7,8.5-43.7,31.5-52C970.73,66.12,974.63,65.32,978.83,64.12 M1013.63,99.22
		c-2.1-2.5-3.8-5.8-6.5-7.2c-8.6-4.5-17.7-4.4-26.4-0.4c-4.9,2.3-8.5,6.5-11.3,13.2C985.13,104.42,999.43,102.72,1013.63,99.22z"/>
	<path class="st0" d="M490.23,146.22c-6.3-10.5-9.4-21.7-10.5-33.4c-1.2-12.9-2.4-25.9,1.2-38.7c2.7-9.7,6-11.5,15.7-9.2
		c1,0.2,1.9,0.4,2.9,0.7c11.3,3.5,12.7,5.5,10.6,17.1c-1.9,10.3-2.2,20.5,0,30.7c0.7,3.1,1.6,6.2,3,8.9c2.7,5.1,6.8,8.8,13,8.4
		c6.2-0.3,9.4-4.6,11.3-9.8c4.5-12.3,3.9-24.9,2.1-37.5c-2.1-15,1.3-19.4,16.6-19.8c3.5-0.1,7,0.3,10.4,0.8
		c7.7,1.1,12.4,5.4,13.5,13.2c0.8,5.3,2.2,10.6,1.8,15.8c-1.3,20.4-2,40.9-5.2,61.1c-3,19.1-18.1,22.8-35.1,17.7
		c-5.7-1.7-4.4-7-4.1-12C517.13,170.92,502.63,162.32,490.23,146.22 M537.63,159.42c-0.1,0.2-0.2,0.4-0.3,0.6
		C537.53,160.02,537.73,159.92,537.63,159.42z"/>
	<path class="st0" d="M884.73,171.92c-18-8-25.8-22.9-28.4-41c-1.8-12.6-2.8-25.4-4.2-38.5c-4.4,0-9.4-0.2-14.3,0.1
		c-4.6,0.3-7-1.8-7.5-6.1c-0.4-3.8-0.3-7.6-0.2-11.4c0.1-4.7,2.7-7.8,7.3-9c5.3-1.4,10.6-2.6,16.1-3.9c0.6-5.4,0.9-10.9,1.7-16.3
		c0.5-3.3,1.4-6.5,2.5-9.6c2.9-8.3,8.9-12.7,17.8-12.6c4.9,0,10,0.4,14.8,1.4c5,1,7.4,4.5,7.1,9.9c-0.6,9-0.9,17.9-1.3,27.2
		c5,0.8,10,1.3,14.8,2.4c9.1,2,14.3,9.7,12.7,18.4c-1,5.3-3.9,9-9.3,9.7c-5.9,0.8-11.9,1-18,1.5c0,11.1-0.7,22.4,0.2,33.5
		c0.6,7.2,5.6,12.6,11.9,16.4c7.5,4.6,9.7,8.5,8.4,15.3c-1.4,7.7-6,13-13.7,14C897.33,173.72,891.13,172.42,884.73,171.92z"/>
	<path class="st0" d="M721.13,152.22c-5.9-11.1-6-22.4-2.9-33.8c7-25.7,35-47.5,61.2-48.4c18-0.6,36.5,10.3,38.5,33.5
		c2.5,28.6-19.3,60.2-47.4,67.1C752.23,175.22,730.53,167.22,721.13,152.22 M749.23,122.22c-0.8,9,4.5,14.6,11,19.3
		c4.3,3.1,9.1,2.8,13.6,0c4.6-2.8,5.7-7.2,5-12.1c-1.2-8.8-8-15.1-17.1-16.2C754.23,112.32,751.53,114.12,749.23,122.22z"/>
	<path class="st0" d="M258.43,107.52c0.6-13.4,3-25.9,8.5-37.7c1.2-2.7,2.8-3.9,5.7-3.7c5,0.4,10,0.4,14.9,1.1
		c10.5,1.4,13.8,5.9,13.1,16.6c-0.9,13.8-2.2,27.6-2.3,41.4c-0.1,9.3,1.5,18.6,2.4,27.8c0.1,1,0.4,2,0.3,3
		c-0.2,13.9-2.9,15.7-14.8,15.5c-4.6-0.1-9.3-0.6-13.9-1.3c-7.2-1-10.3-4-10.9-11.4C260.33,141.92,259.43,124.92,258.43,107.52z"/>
	<path class="st0" d="M206.03,86.22c1.5-4.7,3-8.9,4.2-13.2c1.6-5.8,5.2-7.9,11.1-6.9c4.9,0.8,9.9,1.1,14.8,1.9
		c5.5,0.8,8.8,4.4,8.8,9.8c0,8.1-0.4,16.3-1.2,24.4c-1.7,17.3-0.5,34.5,1.6,51.8c0.5,3.8-0.2,7.9-0.8,11.8c-0.6,4-3.8,5.6-7.3,5.5
		c-7.8-0.2-15.5-0.8-23.2-1.8c-4.6-0.6-7.3-4.3-7.6-8.8c-1.2-21.1-4.9-42-2.4-63.2C204.53,93.82,205.33,90.22,206.03,86.22z"/>
	<path class="st1" d="M219.73,23.62c13.6-3.5,25.5,3.8,26.3,15.6c0.6,8.8-5.7,17-14.4,19c-9.6,2.1-19.3-2.6-22.7-11.1
		c-3.4-8.4-0.1-17.2,8.3-22.2C217.93,24.52,218.63,24.12,219.73,23.62z"/>
	<path class="st1" d="M300.43,46.22c-4.9,10.3-14.4,14.7-24.4,11.6c-10.2-3.2-15.6-13.8-12-23.3c3.8-10,16.1-14.8,26.2-10.3
		C299.03,28.02,302.63,35.72,300.43,46.22z"/>
	<polyline class="st2" points="466.43,146.82 447.43,135.32 437.93,129.32 433.83,125.42 425.53,117.92 422.43,115.52 
		420.73,113.82 419.43,112.32 418.43,110.42 417.63,108.02 417.53,106.72 417.53,105.12 418.23,101.72 419.13,98.02 419.63,94.42 
		419.73,91.12 419.43,88.22 418.73,85.42 417.73,82.82 416.53,80.52 414.93,78.22 414.13,77.12 413.73,75.12 413.03,64.22 
		412.63,58.32 412.13,55.42 411.73,54.22 411.33,53.42 410.73,52.82 409.93,52.42 409.13,52.52 408.23,52.82 406.53,53.92 
		394.73,64.82 392.73,66.72 387.83,59.52 384.53,54.62 384.13,53.92 382.33,54.22 381.53,58.42 381.33,59.72 381.23,60.92 
		381.03,62.02 381.03,62.92 380.43,66.42 379.83,67.02 378.73,67.82 376.03,68.82 371.83,70.22 370.43,70.92 368.53,72.22 
		367.43,73.12 366.53,74.02 365.73,75.12 365.03,76.42 364.23,78.32 363.73,79.82 363.33,80.32 362.03,81.42 360.33,82.72 
		358.83,83.72 357.93,84.42 357.33,85.02 357.23,85.42 357.43,86.42 357.63,87.52 358.03,88.82 358.53,90.42 359.33,92.22 
		360.33,94.32 361.03,95.52 361.73,96.52 362.63,97.42 363.83,98.52 365.23,99.32 365.93,99.72 367.53,100.52 368.83,101.22 
		370.33,102.32 371.33,103.32 372.23,104.42 373.03,105.62 373.63,107.12 373.83,108.32 374.03,109.62 374.03,110.92 374.03,113.92 
		374.03,116.12 374.03,117.92 373.93,118.92 373.83,121.52 373.63,123.02 373.03,125.62 372.43,129.12 371.93,131.82 371.43,134.42 
		371.03,135.82 370.53,138.72 370.03,140.72 369.53,143.22 368.93,145.62 368.23,149.02 367.73,151.62 366.83,155.72 366.33,157.82 
		365.93,159.72 365.13,163.02 364.93,164.02 364.33,165.22 364.03,166.22 363.43,167.32 362.73,168.22 362.03,168.92 361.13,169.82 
		360.53,170.22 359.53,170.62 359.03,170.82 	"/>
</g>
</svg>
