<?xml version="1.0" encoding="utf-8"?>
<!-- Generator: Adobe Illustrator 25.2.1, SVG Export Plug-In . SVG Version: 6.00 Build 0)  -->
<svg version="1.1" xmlns="http://www.w3.org/2000/svg" xmlns:xlink="http://www.w3.org/1999/xlink" x="0px" y="0px"
	 viewBox="0 0 1920 1181" style="enable-background:new 0 0 1920 1181;" xml:space="preserve">
<style type="text/css">
	.st0{fill:#FF6E01;}
	.st1{fill:#FF6E02;}
	.st2{fill:#FF6F03;}
	.st3{fill:#FFFFFF;}
</style>
<g id="Layer_1">
	<path class="st0" d="M576.1,496c9.8-1.1,15.9,3.4,20.4,11.2c8.7,15.2,13.8,31.7,17.7,48.6c4.3,18.8,7.9,37.8,10.9,56.8
		c1.1,7.1,0.2,14.6-0.3,21.9c-0.5,5.9-3.8,10.6-9.6,12.2c-6.8,1.9-13.9,3.7-20.9,4.3c-8.9,0.7-12.5-3.8-12.8-12.6
		c-0.6-15.6-1-31.3-2.6-46.8c-1-10.2-3.9-20.2-6.2-30.3c-0.4-1.6-1.9-2.8-3-4.2c-1.3,1.2-3.2,2.2-3.7,3.7
		c-4.2,12.8-8.3,25.6-11.9,38.5c-2,6.9-3.2,13.9-4.5,21c-0.9,5-3.7,8-8.5,8.3c-6.3,0.4-12.6,0.2-18.9-0.2c-4-0.3-6.3-3-7.4-7
		c-4.8-18.3-9.8-36.6-14.9-54.9c-0.9-3.2-2.6-6.3-3.9-9.4c-0.6,0-1.2,0-1.8-0.1c-1.1,2.6-2.5,5.1-3.2,7.8
		c-6.1,23.5-9.2,47.4-8.3,71.7c0.5,12.3-4.9,17.1-17.2,15.2c-5.6-0.9-11.1-2.1-16.5-3.6c-6.5-1.8-10.3-6.1-11.3-13.1
		c-2-13.6-0.1-26.9,2.3-40.2c4.7-25.4,10.8-50.4,21-74.2c2.6-6.1,5.9-12,10-17.2c2.3-3,6.6-5.4,10.3-6.1c17.7-3.3,30.5,3.6,40.5,22
		c4.3,8,7.4,16.7,11.1,25.3c1.3-3.2,2.4-6.8,4-10c4.2-8.1,8.4-16.2,13-24.1C555.6,500.7,564.4,496.2,576.1,496z"/>
	<path class="st1" d="M754.4,611.4c5.8-34.4,16-67,30.8-98.1c3.6-7.6,8.7-14.5,13.6-21.4c4-5.6,10-7.8,17-8
		c18-0.4,31.3,7.3,40.6,22.6c12.7,20.7,22,42.9,29.6,65.8c5.4,16.1,11.2,32.1,12.3,49.2c0.1,2.1,0,4.2,0,5.9
		c-9.2-5.5-18.1-10.8-26.9-16.4c-2.3-1.5-4.2-3.7-6.3-5.6c-2.8-2.5-5.4-5.4-8.5-7.6c-5.9-4.1-8.3-8.4-6.3-15.3
		c2.6-8.8,2.2-16.6-3.8-24c-0.9-1.1-0.8-3.1-0.9-4.7c-0.4-5.5-0.4-11-1.2-16.4c-0.7-4.4-2.8-5.1-6.1-2.1c-4.5,3.9-8.8,8.1-13.4,12.4
		c-2.8-4.2-5.7-8.4-8.6-12.7c-0.6,0.1-1.2,0.2-1.7,0.3c-0.5,3.1-1.3,6.2-1.4,9.3c-0.1,2.8-1,4.1-3.7,4.9
		c-5.9,1.7-11.5,3.8-13.2,10.7c-0.2,0.9-1.2,1.6-1.9,2.2c-1.7,1.4-5,3-4.9,4c0.7,3.6,2.2,7.3,4.1,10.5c1.2,1.9,3.7,3.2,5.9,4.3
		c4.3,2.2,6.8,5.4,6.7,10.2c0,4.6,0.1,9.4-0.7,13.9c-2.2,12.1-5,24.1-7.5,36.1c-1.5,7.3-4.6,10.8-11.1,10.4c-0.6,0-1.3-0.1-2.1-0.2
		c-7.9-1.3-15.6-4.1-23.1-7.2c-5.4-2.2-7.4-7.7-7.6-13.2C753.8,624.8,754.2,618.3,754.4,611.4z"/>
	<path class="st1" d="M1064.8,553.8c13.8-6.5,23.3-8.1,36.9-6.1c0-3.5,0.1-6.9,0-10.3c-0.1-7.7-0.2-15.3-0.6-23
		c-0.2-5.3,2.5-8.3,7.2-9.2c4.4-0.8,9-1.2,13.4-0.8c7.8,0.8,9.3,2.8,9.3,10.7c0.1,25.2-0.2,50.3,0.1,75.5
		c0.2,17.5,2.4,34.8,7.7,51.7c3,9.6,0.7,12.7-9.4,13.6c-1.2,0.1-2.3,0.1-3.5,0.1c-10.7,0.2-20.2-1.6-23.2-14.4
		c-9.5,6.8-19.3,11.6-30.7,11.8c-13,0.3-24.8-3.5-34.5-12.1c-12.3-10.8-13.9-25.3-10.5-40C1031.7,579.8,1045.2,564.4,1064.8,553.8
		 M1077.9,623.5c11.5-0.4,16.9-7.4,14.2-18.6c-1.9-7.9-9.4-14.7-17.4-15.9c-9.9-1.5-16.9,5.1-14.9,15
		C1061.6,613.7,1067.6,620.3,1077.9,623.5z"/>
	<path class="st1" d="M1410.7,544.8c15.7-4.3,30.2-3.2,44.3,4.7c16.7,9.4,19.9,28.9,18.7,42.8c-0.5,5.2-4.8,9-10.7,9.7
		c-17.7,2.1-35.4,4-53.1,6.1c-2.3,0.3-4.6,1.1-7,1.7c4.1,11.6,15.3,18.9,28.5,17.6c6.7-0.7,13.3-3.6,19.8-5.9
		c3.1-1.1,5.7-3.4,8.8-4.7c6.2-2.6,12.6-0.4,16.1,5.3c2.9,4.7,1.7,8.8-3.6,14c-18.1,17.8-39.7,19.7-62.6,12.7
		c-23.9-7.3-37.6-24.7-42.5-48.5c-4.7-22.7,8.5-43.7,31.5-52C1402.6,546.8,1406.5,546,1410.7,544.8 M1445.5,579.9
		c-2.1-2.5-3.8-5.8-6.5-7.2c-8.6-4.5-17.7-4.4-26.4-0.4c-4.9,2.3-8.5,6.5-11.3,13.2C1417,585.1,1431.3,583.4,1445.5,579.9z"/>
	<path class="st1" d="M922.1,626.9c-6.3-10.5-9.4-21.7-10.5-33.4c-1.2-12.9-2.4-25.9,1.2-38.7c2.7-9.7,6-11.5,15.7-9.2
		c1,0.2,1.9,0.4,2.9,0.7c11.3,3.5,12.7,5.5,10.6,17.1c-1.9,10.3-2.2,20.5,0,30.7c0.7,3.1,1.6,6.2,3,8.9c2.7,5.1,6.8,8.8,13,8.4
		c6.2-0.3,9.4-4.6,11.3-9.8c4.5-12.3,3.9-24.9,2.1-37.5c-2.1-15,1.3-19.4,16.6-19.8c3.5-0.1,7,0.3,10.4,0.8
		c7.7,1.1,12.4,5.4,13.5,13.2c0.8,5.3,2.2,10.6,1.8,15.8c-1.3,20.4-2,40.9-5.2,61.1c-3,19.1-18.1,22.8-35.1,17.7
		c-5.7-1.7-4.4-7-4.1-12C949,651.6,934.5,643,922.1,626.9 M969.5,640.1c-0.1,0.2-0.2,0.4-0.3,0.6
		C969.4,640.7,969.6,640.6,969.5,640.1z"/>
	<path class="st0" d="M1316.6,652.6c-18-8-25.8-22.9-28.4-41c-1.8-12.6-2.8-25.4-4.2-38.5c-4.4,0-9.4-0.2-14.3,0.1
		c-4.6,0.3-7-1.8-7.5-6.1c-0.4-3.8-0.3-7.6-0.2-11.4c0.1-4.7,2.7-7.8,7.3-9c5.3-1.4,10.6-2.6,16.1-3.9c0.6-5.4,0.9-10.9,1.7-16.3
		c0.5-3.3,1.4-6.5,2.5-9.6c2.9-8.3,8.9-12.7,17.8-12.6c4.9,0,10,0.4,14.8,1.4c5,1,7.4,4.5,7.1,9.9c-0.6,9-0.9,17.9-1.3,27.2
		c5,0.8,10,1.3,14.8,2.4c9.1,2,14.3,9.7,12.7,18.4c-1,5.3-3.9,9-9.3,9.7c-5.9,0.8-11.9,1-18,1.5c0,11.1-0.7,22.4,0.2,33.5
		c0.6,7.2,5.6,12.6,11.9,16.4c7.5,4.6,9.7,8.5,8.4,15.3c-1.4,7.7-6,13-13.7,14C1329.2,654.4,1323,653.1,1316.6,652.6z"/>
	<path class="st1" d="M1153,632.9c-5.9-11.1-6-22.4-2.9-33.8c7-25.7,35-47.5,61.2-48.4c18-0.6,36.5,10.3,38.5,33.5
		c2.5,28.6-19.3,60.2-47.4,67.1C1184.1,655.9,1162.4,647.9,1153,632.9 M1181.1,602.9c-0.8,9,4.5,14.6,11,19.3
		c4.3,3.1,9.1,2.8,13.6,0c4.6-2.8,5.7-7.2,5-12.1c-1.2-8.8-8-15.1-17.1-16.2C1186.1,593,1183.4,594.8,1181.1,602.9z"/>
	<path class="st1" d="M690.3,588.2c0.6-13.4,3-25.9,8.5-37.7c1.2-2.7,2.8-3.9,5.7-3.7c5,0.4,10,0.4,14.9,1.1
		c10.5,1.4,13.8,5.9,13.1,16.6c-0.9,13.8-2.2,27.6-2.3,41.4c-0.1,9.3,1.5,18.6,2.4,27.8c0.1,1,0.4,2,0.3,3
		c-0.2,13.9-2.9,15.7-14.8,15.5c-4.6-0.1-9.3-0.6-13.9-1.3c-7.2-1-10.3-4-10.9-11.4C692.2,622.6,691.3,605.6,690.3,588.2z"/>
	<path class="st1" d="M637.9,566.9c1.5-4.7,3-8.9,4.2-13.2c1.6-5.8,5.2-7.9,11.1-6.9c4.9,0.8,9.9,1.1,14.8,1.9
		c5.5,0.8,8.8,4.4,8.8,9.8c0,8.1-0.4,16.3-1.2,24.4c-1.7,17.3-0.5,34.5,1.6,51.8c0.5,3.8-0.2,7.9-0.8,11.8c-0.6,4-3.8,5.6-7.3,5.5
		c-7.8-0.2-15.5-0.8-23.2-1.8c-4.6-0.6-7.3-4.3-7.6-8.8c-1.2-21.1-4.9-42-2.4-63.2C636.4,574.5,637.2,570.9,637.9,566.9z"/>
	<path class="st2" d="M651.6,504.3c13.6-3.5,25.5,3.8,26.3,15.6c0.6,8.8-5.7,17-14.4,19c-9.6,2.1-19.3-2.6-22.7-11.1
		c-3.4-8.4-0.1-17.2,8.3-22.2C649.8,505.2,650.5,504.8,651.6,504.3z"/>
	<path class="st2" d="M732.3,526.9c-4.9,10.3-14.4,14.7-24.4,11.6c-10.2-3.2-15.6-13.8-12-23.3c3.8-10,16.1-14.8,26.2-10.3
		C730.9,508.7,734.5,516.4,732.3,526.9z"/>
	<polyline class="st3" points="898.3,627.5 879.3,616 869.8,610 865.7,606.1 857.4,598.6 854.3,596.2 852.6,594.5 851.3,593 
		850.3,591.1 849.5,588.7 849.4,587.4 849.4,585.8 850.1,582.4 851,578.7 851.5,575.1 851.6,571.8 851.3,568.9 850.6,566.1 
		849.6,563.5 848.4,561.2 846.8,558.9 846,557.8 845.6,555.8 844.9,544.9 844.5,539 844,536.1 843.6,534.9 843.2,534.1 842.6,533.5 
		841.8,533.1 841,533.2 840.1,533.5 838.4,534.6 826.6,545.5 824.6,547.4 819.7,540.2 816.4,535.3 816,534.6 814.2,534.9 
		813.4,539.1 813.2,540.4 813.1,541.6 812.9,542.7 812.9,543.6 812.3,547.1 811.7,547.7 810.6,548.5 807.9,549.5 803.7,550.9 
		802.3,551.6 800.4,552.9 799.3,553.8 798.4,554.7 797.6,555.8 796.9,557.1 796.1,559 795.6,560.5 795.2,561 793.9,562.1 
		792.2,563.4 790.7,564.4 789.8,565.1 789.2,565.7 789.1,566.1 789.3,567.1 789.5,568.2 789.9,569.5 790.4,571.1 791.2,572.9 
		792.2,575 792.9,576.2 793.6,577.2 794.5,578.1 795.7,579.2 797.1,580 797.8,580.4 799.4,581.2 800.7,581.9 802.2,583 803.2,584 
		804.1,585.1 804.9,586.3 805.5,587.8 805.7,589 805.9,590.3 805.9,591.6 805.9,594.6 805.9,596.8 805.9,598.6 805.8,599.6 
		805.7,602.2 805.5,603.7 804.9,606.3 804.3,609.8 803.8,612.5 803.3,615.1 802.9,616.5 802.4,619.4 801.9,621.4 801.4,623.9 
		800.8,626.3 800.1,629.7 799.6,632.3 798.7,636.4 798.2,638.5 797.8,640.4 797,643.7 796.8,644.7 796.2,645.9 795.9,646.9 
		795.3,648 794.6,648.9 793.9,649.6 793,650.5 792.4,650.9 791.4,651.3 790.9,651.5 	"/>
</g>
</svg>
