<?xml version="1.0" encoding="utf-8"?>
<!-- Generator: Adobe Illustrator 25.2.1, SVG Export Plug-In . SVG Version: 6.00 Build 0)  -->
<svg version="1.1" id="Camada_1" xmlns="http://www.w3.org/2000/svg" xmlns:xlink="http://www.w3.org/1999/xlink" x="0px" y="0px"
	 viewBox="0 0 1050 180" style="enable-background:new 0 0 1050 180;" xml:space="preserve">
<style type="text/css">
	.st0{fill:#FF6E01;}
	.st1{fill:#FF6E02;}
	.st2{fill:#FF6F03;}
	.st3{fill:#FFFFFF;}
</style>
<g id="Layer_1_1_">
	<path class="st0" d="M144.1,16.3c9.8-1.1,15.9,3.4,20.4,11.2c8.7,15.2,13.8,31.7,17.7,48.6c4.3,18.8,7.9,37.8,10.9,56.8
		c1.1,7.1,0.2,14.6-0.3,21.9c-0.5,5.9-3.8,10.6-9.6,12.2c-6.8,1.9-13.9,3.7-20.9,4.3c-8.9,0.7-12.5-3.8-12.8-12.6
		c-0.6-15.6-1-31.3-2.6-46.8c-1-10.2-3.9-20.2-6.2-30.3c-0.4-1.6-1.9-2.8-3-4.2c-1.3,1.2-3.2,2.2-3.7,3.7
		c-4.2,12.8-8.3,25.6-11.9,38.5c-2,6.9-3.2,13.9-4.5,21c-0.9,5-3.7,8-8.5,8.3c-6.3,0.4-12.6,0.2-18.9-0.2c-4-0.3-6.3-3-7.4-7
		C78,123.4,73,105.1,67.9,86.8c-0.9-3.2-2.6-6.3-3.9-9.4c-0.6,0-1.2,0-1.8-0.1c-1.1,2.6-2.5,5.1-3.2,7.8
		c-6.1,23.5-9.2,47.4-8.3,71.7c0.5,12.3-4.9,17.1-17.2,15.2c-5.6-0.9-11.1-2.1-16.5-3.6c-6.5-1.8-10.3-6.1-11.3-13.1
		c-2-13.6-0.1-26.9,2.3-40.2c4.7-25.4,10.8-50.4,21-74.2c2.6-6.1,5.9-12,10-17.2c2.3-3,6.6-5.4,10.3-6.1c17.7-3.3,30.5,3.6,40.5,22
		c4.3,8,7.4,16.7,11.1,25.3c1.3-3.2,2.4-6.8,4-10c4.2-8.1,8.4-16.2,13-24.1C123.6,21,132.4,16.5,144.1,16.3z"/>
	<path class="st1" d="M322.4,131.7c5.8-34.4,16-67,30.8-98.1c3.6-7.6,8.7-14.5,13.6-21.4c4-5.6,10-7.8,17-8
		c18-0.4,31.3,7.3,40.6,22.6c12.7,20.7,22,42.9,29.6,65.8c5.4,16.1,11.2,32.1,12.3,49.2c0.1,2.1,0,4.2,0,5.9
		c-9.2-5.5-18.1-10.8-26.9-16.4c-2.3-1.5-4.2-3.7-6.3-5.6c-2.8-2.5-5.4-5.4-8.5-7.6c-5.9-4.1-8.3-8.4-6.3-15.3
		c2.6-8.8,2.2-16.6-3.8-24c-0.9-1.1-0.8-3.1-0.9-4.7c-0.4-5.5-0.4-11-1.2-16.4c-0.7-4.4-2.8-5.1-6.1-2.1c-4.5,3.9-8.8,8.1-13.4,12.4
		c-2.8-4.2-5.7-8.4-8.6-12.7c-0.6,0.1-1.2,0.2-1.7,0.3c-0.5,3.1-1.3,6.2-1.4,9.3c-0.1,2.8-1,4.1-3.7,4.9
		c-5.9,1.7-11.5,3.8-13.2,10.7c-0.2,0.9-1.2,1.6-1.9,2.2c-1.7,1.4-5,3-4.9,4c0.7,3.6,2.2,7.3,4.1,10.5c1.2,1.9,3.7,3.2,5.9,4.3
		c4.3,2.2,6.8,5.4,6.7,10.2c0,4.6,0.1,9.4-0.7,13.9c-2.2,12.1-5,24.1-7.5,36.1c-1.5,7.3-4.6,10.8-11.1,10.4c-0.6,0-1.3-0.1-2.1-0.2
		c-7.9-1.3-15.6-4.1-23.1-7.2c-5.4-2.2-7.4-7.7-7.6-13.2C321.8,145.1,322.2,138.6,322.4,131.7z"/>
	<path class="st1" d="M632.8,74.1c13.8-6.5,23.3-8.1,36.9-6.1c0-3.5,0.1-6.9,0-10.3c-0.1-7.7-0.2-15.3-0.6-23
		c-0.2-5.3,2.5-8.3,7.2-9.2c4.4-0.8,9-1.2,13.4-0.8c7.8,0.8,9.3,2.8,9.3,10.7c0.1,25.2-0.2,50.3,0.1,75.5
		c0.2,17.5,2.4,34.8,7.7,51.7c3,9.6,0.7,12.7-9.4,13.6c-1.2,0.1-2.3,0.1-3.5,0.1c-10.7,0.2-20.2-1.6-23.2-14.4
		c-9.5,6.8-19.3,11.6-30.7,11.8c-13,0.3-24.8-3.5-34.5-12.1c-12.3-10.8-13.9-25.3-10.5-40C599.7,100.1,613.2,84.7,632.8,74.1
		 M645.9,143.8c11.5-0.4,16.9-7.4,14.2-18.6c-1.9-7.9-9.4-14.7-17.4-15.9c-9.9-1.5-16.9,5.1-14.9,15
		C629.6,134,635.6,140.6,645.9,143.8z"/>
	<path class="st1" d="M978.7,65.1c15.7-4.3,30.2-3.2,44.3,4.7c16.7,9.4,19.9,28.9,18.7,42.8c-0.5,5.2-4.8,9-10.7,9.7
		c-17.7,2.1-35.4,4-53.1,6.1c-2.3,0.3-4.6,1.1-7,1.7c4.1,11.6,15.3,18.9,28.5,17.6c6.7-0.7,13.3-3.6,19.8-5.9
		c3.1-1.1,5.7-3.4,8.8-4.7c6.2-2.6,12.6-0.4,16.1,5.3c2.9,4.7,1.7,8.8-3.6,14c-18.1,17.8-39.7,19.7-62.6,12.7
		c-23.9-7.3-37.6-24.7-42.5-48.5c-4.7-22.7,8.5-43.7,31.5-52C970.6,67.1,974.5,66.3,978.7,65.1 M1013.5,100.2
		c-2.1-2.5-3.8-5.8-6.5-7.2c-8.6-4.5-17.7-4.4-26.4-0.4c-4.9,2.3-8.5,6.5-11.3,13.2C985,105.4,999.3,103.7,1013.5,100.2z"/>
	<path class="st1" d="M490.1,147.2c-6.3-10.5-9.4-21.7-10.5-33.4c-1.2-12.9-2.4-25.9,1.2-38.7c2.7-9.7,6-11.5,15.7-9.2
		c1,0.2,1.9,0.4,2.9,0.7c11.3,3.5,12.7,5.5,10.6,17.1c-1.9,10.3-2.2,20.5,0,30.7c0.7,3.1,1.6,6.2,3,8.9c2.7,5.1,6.8,8.8,13,8.4
		c6.2-0.3,9.4-4.6,11.3-9.8c4.5-12.3,3.9-24.9,2.1-37.5c-2.1-15,1.3-19.4,16.6-19.8c3.5-0.1,7,0.3,10.4,0.8
		c7.7,1.1,12.4,5.4,13.5,13.2c0.8,5.3,2.2,10.6,1.8,15.8c-1.3,20.4-2,40.9-5.2,61.1c-3,19.1-18.1,22.8-35.1,17.7
		c-5.7-1.7-4.4-7-4.1-12C517,171.9,502.5,163.3,490.1,147.2 M537.5,160.4c-0.1,0.2-0.2,0.4-0.3,0.6
		C537.4,161,537.6,160.9,537.5,160.4z"/>
	<path class="st0" d="M884.6,172.9c-18-8-25.8-22.9-28.4-41c-1.8-12.6-2.8-25.4-4.2-38.5c-4.4,0-9.4-0.2-14.3,0.1
		c-4.6,0.3-7-1.8-7.5-6.1c-0.4-3.8-0.3-7.6-0.2-11.4c0.1-4.7,2.7-7.8,7.3-9c5.3-1.4,10.6-2.6,16.1-3.9c0.6-5.4,0.9-10.9,1.7-16.3
		c0.5-3.3,1.4-6.5,2.5-9.6c2.9-8.3,8.9-12.7,17.8-12.6c4.9,0,10,0.4,14.8,1.4c5,1,7.4,4.5,7.1,9.9c-0.6,9-0.9,17.9-1.3,27.2
		c5,0.8,10,1.3,14.8,2.4c9.1,2,14.3,9.7,12.7,18.4c-1,5.3-3.9,9-9.3,9.7c-5.9,0.8-11.9,1-18,1.5c0,11.1-0.7,22.4,0.2,33.5
		c0.6,7.2,5.6,12.6,11.9,16.4c7.5,4.6,9.7,8.5,8.4,15.3c-1.4,7.7-6,13-13.7,14C897.2,174.7,891,173.4,884.6,172.9z"/>
	<path class="st1" d="M721,153.2c-5.9-11.1-6-22.4-2.9-33.8c7-25.7,35-47.5,61.2-48.4c18-0.6,36.5,10.3,38.5,33.5
		c2.5,28.6-19.3,60.2-47.4,67.1C752.1,176.2,730.4,168.2,721,153.2 M749.1,123.2c-0.8,9,4.5,14.6,11,19.3c4.3,3.1,9.1,2.8,13.6,0
		c4.6-2.8,5.7-7.2,5-12.1c-1.2-8.8-8-15.1-17.1-16.2C754.1,113.3,751.4,115.1,749.1,123.2z"/>
	<path class="st1" d="M258.3,108.5c0.6-13.4,3-25.9,8.5-37.7c1.2-2.7,2.8-3.9,5.7-3.7c5,0.4,10,0.4,14.9,1.1
		c10.5,1.4,13.8,5.9,13.1,16.6c-0.9,13.8-2.2,27.6-2.3,41.4c-0.1,9.3,1.5,18.6,2.4,27.8c0.1,1,0.4,2,0.3,3
		c-0.2,13.9-2.9,15.7-14.8,15.5c-4.6-0.1-9.3-0.6-13.9-1.3c-7.2-1-10.3-4-10.9-11.4C260.2,142.9,259.3,125.9,258.3,108.5z"/>
	<path class="st1" d="M205.9,87.2c1.5-4.7,3-8.9,4.2-13.2c1.6-5.8,5.2-7.9,11.1-6.9c4.9,0.8,9.9,1.1,14.8,1.9
		c5.5,0.8,8.8,4.4,8.8,9.8c0,8.1-0.4,16.3-1.2,24.4c-1.7,17.3-0.5,34.5,1.6,51.8c0.5,3.8-0.2,7.9-0.8,11.8c-0.6,4-3.8,5.6-7.3,5.5
		c-7.8-0.2-15.5-0.8-23.2-1.8c-4.6-0.6-7.3-4.3-7.6-8.8c-1.2-21.1-4.9-42-2.4-63.2C204.4,94.8,205.2,91.2,205.9,87.2z"/>
	<path class="st2" d="M219.6,24.6c13.6-3.5,25.5,3.8,26.3,15.6c0.6,8.8-5.7,17-14.4,19c-9.6,2.1-19.3-2.6-22.7-11.1
		c-3.4-8.4-0.1-17.2,8.3-22.2C217.8,25.5,218.5,25.1,219.6,24.6z"/>
	<path class="st2" d="M300.3,47.2c-4.9,10.3-14.4,14.7-24.4,11.6c-10.2-3.2-15.6-13.8-12-23.3c3.8-10,16.1-14.8,26.2-10.3
		C298.9,29,302.5,36.7,300.3,47.2z"/>
	<polyline class="st3" points="466.3,147.8 447.3,136.3 437.8,130.3 433.7,126.4 425.4,118.9 422.3,116.5 420.6,114.8 419.3,113.3 
		418.3,111.4 417.5,109 417.4,107.7 417.4,106.1 418.1,102.7 419,99 419.5,95.4 419.6,92.1 419.3,89.2 418.6,86.4 417.6,83.8 
		416.4,81.5 414.8,79.2 414,78.1 413.6,76.1 412.9,65.2 412.5,59.3 412,56.4 411.6,55.2 411.2,54.4 410.6,53.8 409.8,53.4 409,53.5 
		408.1,53.8 406.4,54.9 394.6,65.8 392.6,67.7 387.7,60.5 384.4,55.6 384,54.9 382.2,55.2 381.4,59.4 381.2,60.7 381.1,61.9 
		380.9,63 380.9,63.9 380.3,67.4 379.7,68 378.6,68.8 375.9,69.8 371.7,71.2 370.3,71.9 368.4,73.2 367.3,74.1 366.4,75 365.6,76.1 
		364.9,77.4 364.1,79.3 363.6,80.8 363.2,81.3 361.9,82.4 360.2,83.7 358.7,84.7 357.8,85.4 357.2,86 357.1,86.4 357.3,87.4 
		357.5,88.5 357.9,89.8 358.4,91.4 359.2,93.2 360.2,95.3 360.9,96.5 361.6,97.5 362.5,98.4 363.7,99.5 365.1,100.3 365.8,100.7 
		367.4,101.5 368.7,102.2 370.2,103.3 371.2,104.3 372.1,105.4 372.9,106.6 373.5,108.1 373.7,109.3 373.9,110.6 373.9,111.9 
		373.9,114.9 373.9,117.1 373.9,118.9 373.8,119.9 373.7,122.5 373.5,124 372.9,126.6 372.3,130.1 371.8,132.8 371.3,135.4 
		370.9,136.8 370.4,139.7 369.9,141.7 369.4,144.2 368.8,146.6 368.1,150 367.6,152.6 366.7,156.7 366.2,158.8 365.8,160.7 365,164 
		364.8,165 364.2,166.2 363.9,167.2 363.3,168.3 362.6,169.2 361.9,169.9 361,170.8 360.4,171.2 359.4,171.6 358.9,171.8 	"/>
</g>
</svg>
